PathFileType	4	(X/Y/Z)	 s01c0202.trc
DataRate	CameraRate	NumFrames	NumMarkers	Units	OrigDataRate	OrigDataStartFrame	OrigNumFrames
200	200	4	48	mm	200	501	2000
Frame#	Time	racr			lacr			c7			jug			rlel			rdr			llel			ldr			s2			lic			ric			lasi			rasi			rpsi			lpsi			rgt			lgt			rth1			rth2			rth3			rth4			rlfc			rsh1			rsh2			rsh3			rsh4			rlmal			rmmal			rcal			rtoe			rmt5			lth1			lth2			lth4			lth3			llfc			lsh1			lsh2			lsh3			lsh4			llmal			lmmal			lcal			ltoe			lmt5			SBIKE			LBIKE			RBIKE			
		X1	Y1	Z1	X2	Y2	Z2	X3	Y3	Z3	X4	Y4	Z4	X5	Y5	Z5	X6	Y6	Z6	X7	Y7	Z7	X8	Y8	Z8	X9	Y9	Z9	X10	Y10	Z10	X11	Y11	Z11	X12	Y12	Z12	X13	Y13	Z13	X14	Y14	Z14	X15	Y15	Z15	X16	Y16	Z16	X17	Y17	Z17	X18	Y18	Z18	X19	Y19	Z19	X20	Y20	Z20	X21	Y21	Z21	X22	Y22	Z22	X23	Y23	Z23	X24	Y24	Z24	X25	Y25	Z25	X26	Y26	Z26	X27	Y27	Z27	X28	Y28	Z28	X29	Y29	Z29	X30	Y30	Z30	X31	Y31	Z31	X32	Y32	Z32	X33	Y33	Z33	X34	Y34	Z34	X35	Y35	Z35	X36	Y36	Z36	X37	Y37	Z37	X38	Y38	Z38	X39	Y39	Z39	X40	Y40	Z40	X41	Y41	Z41	X42	Y42	Z42	X43	Y43	Z43	X44	Y44	Z44	X45	Y45	Z45	X46	Y46	Z46	X47	Y47	Z47	X48	Y48	Z48	
501	2.5050	473.098593	1274.069136	-43.746259	530.753807	1258.452874	-378.940577	467.224725	1361.297289	-219.993241	464.079425	1191.403492	-213.885558	465.146748	1006.228574	58.323915	678.191631	897.203893	-35.494495	504.502718	1026.231311	-552.624859	676.686301	888.180018	-443.617096	-57.710381	1165.910705	-271.569914	125.457593	1164.708534	-433.826936	83.543055	1165.794764	-99.455476	120.251152	1116.919772	-409.366773	116.760153	1123.401373	-132.468878	-30.964744	1204.059908	-220.012331	-27.526111	1205.070455	-326.788176	40.502807	1054.987303	-80.637877	68.604918	1045.668290	-462.489847	125.035568	943.651808	-61.909147	180.300318	882.460340	-69.336564	235.921696	812.108289	-83.550116	222.438316	917.388539	-83.898873	288.953844	711.757304	-104.066447	272.277837	595.569452	-64.385702	271.597203	510.540000	-67.278737	262.318670	422.388876	-74.950698	317.541989	509.709391	-107.192673	237.771683	299.115428	-92.627253	293.932296	324.699857	-173.840193	195.496595	270.441780	-143.582438	464.262138	233.533429	-132.535870	359.784813	209.064535	-61.359296	161.187323	969.265349	-458.228844	248.578577	947.407098	-456.276605	262.342952	998.419330	-445.814934	327.279782	917.213308	-438.345707	403.841469	830.912596	-411.021081	308.353089	777.722614	-442.782454	244.250738	720.653929	-435.898768	178.500593	666.675698	-421.444349	281.399322	684.018686	-400.652004	82.032308	589.484655	-407.027651	110.359015	577.441236	-324.704387	19.432896	587.865414	-362.314670	225.384286	399.099824	-372.526128	131.975718	450.840850	-437.138207	-223.863218	892.974121	-253.086562	-12.536071	84.509783	-456.174199	-21.530674	80.760245	-56.113661	
502	2.5100	473.624599	1275.822924	-44.740093	529.566453	1260.890514	-380.944995	466.693409	1364.120587	-220.821996	464.141248	1194.618205	-215.452683	465.091099	1007.366559	57.402548	678.523038	897.183293	-35.466047	503.598312	1026.572643	-551.614800	676.550294	888.457552	-443.038893	-57.646569	1165.254376	-271.218866	125.362554	1166.027264	-433.795089	83.299987	1165.967387	-99.238615	120.767480	1117.916054	-408.774726	117.057422	1123.695439	-132.074781	-31.099656	1203.407539	-219.537805	-27.801525	1204.707801	-326.251034	40.391464	1054.125164	-80.548356	69.957545	1046.649603	-462.257303	124.041999	942.483495	-61.287008	178.522601	880.542075	-68.561270	233.329240	809.536054	-82.527751	220.947295	914.995788	-82.476880	285.541551	708.460085	-102.987864	268.979260	592.331019	-63.436060	268.266696	507.257597	-66.508862	259.310440	419.190961	-74.371070	314.470544	506.630048	-106.265940	235.169427	296.160544	-92.651193	291.750917	321.433154	-173.623620	192.738053	268.541026	-143.517976	460.830578	227.148299	-132.724233	355.973901	204.348681	-61.537322	163.049228	971.307481	-458.060474	250.748856	950.622596	-456.122557	263.890617	1001.723950	-445.714497	329.897142	921.520226	-438.129657	407.613407	836.560374	-410.537303	312.108180	783.344740	-442.277313	248.177629	726.045813	-435.486788	182.477322	671.907539	-421.161614	285.400096	689.364154	-400.382272	86.418618	594.446774	-406.888669	114.867030	582.182904	-324.826925	23.883665	592.826255	-362.133829	230.642880	404.738282	-372.788991	136.305931	455.876268	-436.857261	-223.919526	892.970046	-252.993741	-12.572050	84.565755	-456.128250	-21.536789	80.772344	-56.110334	
503	2.5150	474.240348	1277.820313	-45.997637	528.364725	1263.458756	-382.997135	466.107791	1366.980836	-221.916038	463.928488	1197.907462	-217.103977	465.529708	1008.838009	56.792263	678.903940	897.249560	-35.652087	502.796861	1026.941273	-550.768432	676.439641	888.729783	-442.617929	-57.564982	1164.632739	-270.777694	124.959616	1167.385632	-433.662143	83.084334	1166.238668	-99.085285	121.237398	1119.120556	-408.166606	117.198939	1123.894537	-131.182604	-31.212837	1202.815677	-218.960429	-28.117182	1204.409798	-325.618582	40.395944	1053.552247	-80.354890	71.275064	1047.735757	-461.982815	123.018867	941.398560	-60.584919	176.838745	878.871736	-67.810917	230.812022	807.165455	-81.504380	219.730556	912.794185	-81.612060	282.139161	705.448916	-101.932092	265.382641	589.312051	-62.601365	264.961736	504.278082	-65.822828	256.173498	416.095643	-73.836389	311.322014	503.754016	-105.372403	232.484513	293.415122	-92.798403	289.376989	318.287247	-173.393729	189.882653	267.039211	-143.438334	457.214128	220.437025	-132.844882	352.059083	199.847603	-61.578990	164.803508	973.466963	-457.829664	252.722765	953.839976	-455.936318	265.185447	1005.282274	-445.695727	332.314772	925.865255	-437.935418	411.101471	842.587000	-410.021683	315.774554	788.939870	-441.755751	252.025928	731.341788	-435.041894	186.513153	677.031401	-420.822315	289.413108	694.798202	-400.222186	90.827644	599.215239	-406.747870	119.407258	586.729947	-324.958133	28.277532	597.560618	-361.806102	235.298432	409.868966	-372.684933	141.008706	460.735307	-436.745412	-223.904222	892.982581	-252.935661	-12.566103	84.572882	-456.108434	-21.534493	80.756692	-56.096394	
504	2.5200	474.823157	1279.926038	-47.538832	527.187989	1266.076799	-385.080927	465.518087	1369.741781	-223.151483	463.821887	1200.933721	-218.831706	466.158085	1010.594556	56.100151	679.394706	897.481778	-35.852747	501.961476	1027.442727	-550.125547	676.349813	889.103396	-442.300267	-57.538601	1164.238877	-270.224192	124.120899	1168.678879	-433.307738	82.956496	1166.707347	-98.947581	121.623781	1120.292718	-407.483517	117.466731	1124.312456	-130.609737	-31.359558	1202.364595	-218.245492	-28.439602	1204.249010	-324.855264	40.337959	1053.072849	-80.085008	72.415410	1048.962458	-461.661085	121.983415	940.435893	-60.051884	175.049254	877.308539	-67.059776	228.072263	805.089090	-80.439592	218.550933	910.777640	-80.815415	278.740988	702.649279	-100.863014	261.852736	586.537427	-61.786185	261.627236	501.546831	-65.021040	253.026343	413.382806	-73.357300	308.163066	501.147292	-104.424528	229.696796	291.029676	-92.783706	286.811530	315.268458	-173.148615	187.130431	265.768780	-143.430886	453.470191	214.178098	-132.983180	347.745754	195.300039	-62.133168	166.459336	975.750195	-457.521024	254.615891	957.159397	-455.605375	266.430143	1008.660904	-445.270578	334.530986	930.214517	-437.643660	414.469036	848.239112	-409.431195	319.234865	794.500952	-441.303938	255.719505	736.728059	-434.615235	190.521032	682.146408	-420.637050	293.293608	700.146011	-400.025758	95.249542	603.776960	-406.617139	123.952408	591.088527	-325.069576	32.609640	602.012464	-361.700554	240.111172	414.767950	-372.505084	145.790691	465.508820	-436.562874	-223.931426	893.004247	-252.884589	-12.549749	84.585134	-456.152243	-21.534469	80.772142	-56.095377	
